<svg width="33" height="33" viewBox="0 0 33 33" fill="none" xmlns="http://www.w3.org/2000/svg">
<path d="M32.2388 11.3815C29.5215 2.84216 20.2514 -1.92999 11.5697 0.742223C3.06881 3.36022 -1.75972 12.1628 0.595688 20.5462C0.67852 20.841 0.990496 21.0043 1.28315 20.9141C1.57959 20.8228 1.74333 20.5065 1.66035 20.2076C-0.505298 12.4063 3.99411 4.22718 11.9039 1.79107C15.8242 0.584442 19.9876 0.951631 23.6258 2.82457C27.2657 4.6986 29.9456 7.85396 31.1727 11.7103C32.3992 15.5666 32.0265 19.6621 30.1222 23.2424C28.2184 26.8233 25.0111 29.4598 21.0907 30.667C14.7058 32.6328 7.72369 30.2702 3.90538 24.9137C3.72902 24.6663 3.38985 24.5929 3.1337 24.7563C2.87205 24.9232 2.79695 25.2727 2.97671 25.5257C6.10577 29.9296 11.227 32.4525 16.5294 32.452C18.1611 32.452 19.8111 32.2134 21.4243 31.7153C25.6291 30.4207 29.0695 27.5924 31.1123 23.752C33.1552 19.9116 33.5547 15.5182 32.2388 11.3815Z" fill="#FFB444"/>
<path d="M12.7348 7.54164C13.0247 7.6272 13.3293 7.46313 13.4173 7.17405C13.5064 6.88144 13.3399 6.5723 13.0465 6.48571L7.99128 4.99373C7.79572 4.93546 7.58169 4.98825 7.43586 5.13172L6.31831 6.23116C6.18814 6.35923 6.13055 6.54227 6.16409 6.72042C6.19764 6.8985 6.31831 7.04862 6.48649 7.12229L11.0164 9.10293C11.293 9.22388 11.6154 9.09984 11.7397 8.8247C11.866 8.54489 11.7394 8.21577 11.4581 8.09275L7.96548 6.56533C7.83072 6.5064 7.79816 6.32995 7.90301 6.2268C7.95684 6.17384 8.03516 6.15425 8.10759 6.17563L12.7348 7.54164Z" fill="#FFB444"/>
<path d="M18.4488 4.42152C18.4488 4.11807 18.199 3.8718 17.89 3.8718H17.8889C16.6596 3.8718 15.5035 4.34289 14.634 5.19831L11.0181 8.75529C10.7009 9.06728 10.5423 9.22328 10.3657 9.33608C10.0256 9.55334 9.62765 9.6626 9.22424 9.6495C9.01481 9.6427 8.7988 9.58955 8.36678 9.48326L7.96731 9.38497C7.77679 9.33825 7.5756 9.39264 7.43645 9.52954L6.31891 10.629C6.19712 10.7488 6.13789 10.917 6.15912 11.0847C6.18034 11.2524 6.27868 11.4019 6.42622 11.4888L8.49362 12.7093C8.66896 12.8128 8.75663 12.8645 8.83761 12.924C8.99312 13.0383 9.13128 13.1745 9.24779 13.3284C9.30845 13.4085 9.36147 13.4954 9.46749 13.6692L10.7053 15.6985C10.7936 15.8437 10.945 15.9404 11.116 15.9613C11.1383 15.9641 11.1613 15.9652 11.1842 15.9652C11.3311 15.9652 11.4736 15.908 11.5798 15.8047L12.6974 14.7052C12.8359 14.5683 12.8918 14.3705 12.8443 14.183L12.7639 13.8664C12.6507 13.4212 12.5941 13.1986 12.5867 12.9831C12.5725 12.5681 12.6879 12.1589 12.9168 11.8124C13.0356 11.6325 13.2002 11.4723 13.5292 11.1517L17.1765 7.59892C17.9979 6.75285 18.4499 5.64136 18.4488 4.42152ZM11.3495 11.7262C11.2093 11.8625 11.1529 12.0616 11.2004 12.2501L11.6407 13.9822C11.6666 14.0844 11.6364 14.1927 11.5613 14.2666C11.4251 14.4005 11.1997 14.3727 11.1002 14.2096L9.98672 12.3837C9.93922 12.3062 9.87384 12.2413 9.79509 12.1952L7.94258 11.1017C7.77709 11.0041 7.74914 10.7761 7.88612 10.6413C7.95849 10.5701 8.06258 10.5415 8.16116 10.5658L9.9309 11.0012C10.1214 11.0479 10.3226 10.9935 10.4618 10.8566L15.4237 5.97509C15.4408 5.95824 15.458 5.94159 15.4754 5.92514C16.207 5.23338 17.0798 6.10568 16.3786 6.82826L11.3495 11.7262Z" fill="#FFB444"/>
<path d="M17.3072 14.2313L15.7904 9.19236C15.7021 8.89905 15.3939 8.73171 15.0998 8.8174C14.802 8.90417 14.6321 9.21711 14.7215 9.51413L16.0926 14.0685C16.118 14.1529 16.0915 14.2444 16.025 14.3022C15.911 14.4013 15.7336 14.3614 15.6729 14.223L14.1533 10.7549C14.0308 10.4753 13.7061 10.3462 13.425 10.4654C13.1392 10.5867 13.0075 10.918 13.1321 11.2024L15.0738 15.6332C15.1447 15.7949 15.29 15.9136 15.4649 15.9521C15.5057 15.9608 15.5465 15.9653 15.5873 15.9653C15.722 15.9653 15.8538 15.9175 15.9566 15.8279L17.1413 14.7999C17.3044 14.6584 17.3687 14.4369 17.3072 14.2313Z" fill="#FFB444"/>
<path d="M10.8794 30.8018C10.7485 30.5299 10.4227 30.4149 10.1466 30.5364C6.40442 32.1837 3.4804 32.3459 2.08002 30.9688C-0.402562 28.5264 2.18947 21.524 8.11113 14.5524C8.3118 14.3162 8.28532 13.9601 8.04815 13.7605C7.81631 13.5655 7.4692 13.5938 7.27278 13.8245C0.759286 21.475 -1.70345 28.8022 1.2894 31.7461C2.14043 32.5827 3.34235 33 4.83313 33C6.44815 33 8.40202 32.5105 10.6131 31.5354C10.8941 31.4114 11.0127 31.0785 10.8794 30.8018Z" fill="#FFB444"/>
<path d="M29.5584 19.004C29.4611 18.8253 29.2717 18.7138 29.0655 18.7138H28.9057C28.4193 18.7138 28.1761 18.7138 27.9553 18.6631C27.5296 18.5654 27.1476 18.3311 26.8677 17.9959C26.7224 17.822 26.6122 17.6052 26.3918 17.1716L25.6536 15.7194C25.5587 15.5331 25.3653 15.4154 25.1535 15.4154H19.5657C19.2567 15.4154 19.007 15.6617 19.007 15.9651V20.3629C19.007 20.6669 19.2568 20.9126 19.5657 20.9126C20.4915 20.9126 21.2421 21.6631 21.2421 22.5889V26.9596C21.2421 27.2636 21.4918 27.5093 21.8008 27.5093H24.5947C24.7427 27.5093 24.8847 27.4516 24.9903 27.3477L27.2254 25.1488C27.3304 25.046 27.3891 24.9064 27.3891 24.7601V23.5933C27.3891 23.344 27.3891 23.2194 27.404 23.0981C27.4326 22.8649 27.502 22.6387 27.6091 22.4297C27.6649 22.3209 27.7348 22.2177 27.8746 22.0113L29.5303 19.568C29.6444 19.3998 29.6556 19.1826 29.5584 19.004ZM26.3649 22.2567C26.304 22.3469 26.271 22.4535 26.271 22.5618V23.3515C26.271 23.6893 26.271 23.8582 26.2446 24.0191C26.1939 24.3285 26.071 24.6216 25.8861 24.8748C25.7899 25.0065 25.6695 25.1249 25.4287 25.3618L24.7785 26.0015C24.5125 26.2632 24.1543 26.4099 23.7812 26.4099C22.9958 26.4099 22.3591 25.7732 22.3591 24.9878V20.3629C22.3591 20.0589 22.1093 19.8132 21.8003 19.8132H21.7731C20.8623 19.8132 20.124 19.0748 20.124 18.164C20.124 17.2532 20.8623 16.5149 21.7731 16.5149H23.0777C23.5641 16.5149 23.8073 16.5149 24.0281 16.5656C24.4538 16.6633 24.8358 16.8976 25.1157 17.2327C25.261 17.4066 25.3712 17.6234 25.5916 18.057L26.3298 19.5092C26.4247 19.6956 26.6181 19.8133 26.8298 19.8133C27.3366 19.8133 27.637 20.3799 27.3527 20.7994L26.3649 22.2567Z" fill="#FFB444"/>
<path d="M30.646 14.3159C30.2138 14.3159 29.8143 14.086 29.5972 13.7122L27.8737 10.7449C27.7742 10.5734 27.5887 10.4678 27.3887 10.4678H24.036C23.8494 10.4678 23.6751 10.5596 23.5711 10.7124L22.8873 11.7218C22.7199 11.969 22.4407 12.117 22.1422 12.117C21.6451 12.117 21.2422 11.7141 21.2422 11.217V10.7427C21.2422 9.9837 21.8575 9.3684 22.6165 9.3684H24.036C24.1847 9.3684 24.3261 9.31065 24.4311 9.20734L25.9718 7.69159C26.3119 7.35703 26.7698 7.16953 27.2469 7.16953H28.5153C28.8189 7.16953 29.065 6.92341 29.065 6.61981C29.065 6.31621 28.8189 6.07009 28.5153 6.07009H26.2711C26.1225 6.07009 25.9811 6.12784 25.8761 6.23116L24.6278 7.45922C24.3923 7.69085 24.2746 7.80666 24.1445 7.89916C23.8942 8.07705 23.6063 8.19492 23.3032 8.24363C23.1455 8.26897 22.9804 8.26897 22.6501 8.26897H20.6834C20.3744 8.26897 20.1246 8.51524 20.1246 8.81869V12.6667C20.1246 12.9702 20.3745 13.2164 20.6834 13.2164H22.9185C23.1051 13.2164 23.2795 13.1247 23.3834 12.9718L23.6008 12.651C23.7363 12.4509 23.8041 12.3509 23.8785 12.2642C24.2068 11.8819 24.6674 11.6377 25.168 11.5803C25.2815 11.5673 25.4023 11.5673 25.644 11.5673C25.9052 11.5673 26.0358 11.5673 26.1572 11.5822C26.6939 11.6481 27.1809 11.9285 27.5075 12.3594C27.5814 12.4569 27.647 12.5699 27.7782 12.7957L29.1388 15.1383C29.2383 15.3098 29.4238 15.4154 29.6238 15.4154H31.3092C31.6128 15.4154 31.8589 15.1693 31.8589 14.8657C31.8589 14.5621 31.6128 14.3159 31.3092 14.3159H30.646Z" fill="#FFB444"/>
<path d="M16.2131 19.8132H14.2464C13.9162 19.8132 13.751 19.8132 13.5934 19.7879C13.2902 19.7391 13.0023 19.6213 12.7521 19.4434C12.6219 19.3509 12.5042 19.2351 12.2688 19.0034L11.5792 18.3251C11.4747 18.2217 11.3322 18.164 11.1842 18.164H8.39034C8.08189 18.164 7.83156 18.4098 7.83156 18.7138V22.5618C7.83156 22.8658 8.08189 23.1115 8.39034 23.1115C8.60864 23.1115 8.7178 23.1115 8.80978 23.12C9.76865 23.2088 10.5281 23.9683 10.6169 24.9271C10.6254 25.0191 10.6254 25.1283 10.6254 25.3466V28.6088C10.6254 28.8171 10.745 29.0073 10.9344 29.1007C11.0133 29.1392 11.0993 29.1585 11.1843 29.1585C11.3027 29.1585 11.4206 29.1217 11.5195 29.0485L13.7546 27.3994C13.8954 27.2955 13.9781 27.1322 13.9781 26.9596V26.9437C13.9781 26.5543 13.9781 26.3597 14.0124 26.177C14.0783 25.8253 14.2373 25.4978 14.4729 25.2286C14.5953 25.0887 14.7483 24.9683 15.0543 24.7275L16.5624 23.5409C16.6948 23.4365 16.772 23.2787 16.772 23.1116V20.363C16.7719 20.059 16.5216 19.8132 16.2131 19.8132ZM15.6543 22.2152C15.6543 22.6146 15.4711 22.9919 15.1573 23.2388L13.07 24.8811C12.9376 24.9856 12.8605 25.1433 12.8605 25.3104V26.4027C12.8605 26.5801 12.7762 26.7469 12.6335 26.8523C12.2646 27.1245 11.743 26.8611 11.743 26.4027V22.5618C11.743 22.2578 11.4926 22.0121 11.1842 22.0121H10.3234C9.5644 22.0121 8.9491 21.3968 8.9491 20.6378C8.9491 19.8788 9.5644 19.2635 10.3234 19.2635H10.3708C10.7438 19.2635 11.1019 19.4102 11.3678 19.6718L12.4654 20.7516C12.5699 20.8549 12.7124 20.9127 12.8605 20.9127H14.3518C15.0712 20.9127 15.6543 21.4958 15.6543 22.2152Z" fill="#FFB444"/>
</svg>
