<svg width="45" height="37" viewBox="0 0 45 37" fill="none" xmlns="http://www.w3.org/2000/svg">
<path d="M43.3824 36.5636H28.1006V20.7633C28.1006 16.1364 29.4347 12.051 32.1029 8.50699C35.0138 4.47077 39.0768 1.862 44.292 0.680664V7.03033C41.3812 7.81788 39.1374 9.73754 37.5607 12.7893C36.1053 15.4473 35.4989 18.1545 35.7415 20.911H43.3824V36.5636ZM15.3657 36.5636H0.0839539V20.7633C0.0839539 16.1364 1.41808 12.051 4.08633 8.50699C6.99714 4.47077 11.0602 1.862 16.2754 0.680664V7.03033C13.3646 7.81788 11.1208 9.73754 9.54411 12.7893C8.0887 15.4473 7.48228 18.1545 7.72485 20.911H15.3657V36.5636Z" fill="#F5FCFF"/>
</svg>
